<mxfile host="Electron" agent="Mozilla/5.0 (X11; Linux x86_64) AppleWebKit/537.36 (KHTML, like Gecko) draw.io/28.2.5 Chrome/138.0.7204.251 Electron/37.6.1 Safari/537.36" version="28.2.5">
  <diagram name="Page-1" id="FTNxK4zlhxrcMWj6fFKh">
    <mxGraphModel dx="1092" dy="810" grid="1" gridSize="10" guides="1" tooltips="1" connect="1" arrows="1" fold="1" page="1" pageScale="1" pageWidth="1280" pageHeight="640" math="0" shadow="0">
      <root>
        <mxCell id="0" />
        <mxCell id="1" parent="0" />
        <mxCell id="3V3tb8CalUzVDeNO-80C-7" style="edgeStyle=orthogonalEdgeStyle;rounded=0;orthogonalLoop=1;jettySize=auto;html=1;exitX=0;exitY=0;exitDx=140;exitDy=65;exitPerimeter=0;strokeWidth=2;" parent="1" source="3V3tb8CalUzVDeNO-80C-2" target="3V3tb8CalUzVDeNO-80C-4" edge="1">
          <mxGeometry relative="1" as="geometry" />
        </mxCell>
        <mxCell id="3V3tb8CalUzVDeNO-80C-2" value="Test script&lt;div&gt;(.test.elv)&lt;/div&gt;" style="shape=note;whiteSpace=wrap;html=1;backgroundOutline=1;darkOpacity=0.05;fontStyle=1;fontSize=16;fillColor=#FFF2CC;fontColor=#000000;strokeColor=#000000;" parent="1" vertex="1">
          <mxGeometry x="250" y="35" width="140" height="100" as="geometry" />
        </mxCell>
        <mxCell id="3V3tb8CalUzVDeNO-80C-8" style="edgeStyle=orthogonalEdgeStyle;rounded=0;orthogonalLoop=1;jettySize=auto;html=1;exitX=1;exitY=0.5;exitDx=0;exitDy=0;entryX=0;entryY=0.5;entryDx=0;entryDy=0;strokeWidth=2;" parent="1" source="3V3tb8CalUzVDeNO-80C-4" target="3V3tb8CalUzVDeNO-80C-5" edge="1">
          <mxGeometry relative="1" as="geometry" />
        </mxCell>
        <mxCell id="3V3tb8CalUzVDeNO-80C-4" value="&lt;font style=&quot;font-size: 15px;&quot;&gt;Tests run sequentially&lt;/font&gt;&lt;div&gt;&lt;font style=&quot;font-size: 15px;&quot;&gt;in a dedicated&lt;/font&gt;&lt;/div&gt;&lt;div&gt;&lt;font style=&quot;font-size: 15px;&quot;&gt;Elvish shell&lt;/font&gt;&lt;/div&gt;" style="rounded=0;whiteSpace=wrap;html=1;fontStyle=1;fillColor=#CCFFCC;fontColor=#000000;strokeColor=#000000;" parent="1" vertex="1">
          <mxGeometry x="451" y="50" width="190" height="100" as="geometry" />
        </mxCell>
        <mxCell id="3V3tb8CalUzVDeNO-80C-5" value="Tree of test results&lt;div&gt;for the script&lt;/div&gt;" style="shape=document;whiteSpace=wrap;html=1;boundedLbl=1;fontStyle=1;fontSize=16;strokeColor=#000000;fillColor=#FFEFFC;fontColor=#000000;" parent="1" vertex="1">
          <mxGeometry x="700" y="50" width="160" height="100" as="geometry" />
        </mxCell>
        <mxCell id="3V3tb8CalUzVDeNO-80C-6" value="velvet" style="rounded=1;whiteSpace=wrap;html=1;fontStyle=1;fontSize=21;strokeColor=#FFFFFF;fillColor=#000000;fontColor=#FFFFFF;" parent="1" vertex="1">
          <mxGeometry x="40" y="245" width="120" height="60" as="geometry" />
        </mxCell>
        <mxCell id="3V3tb8CalUzVDeNO-80C-9" style="edgeStyle=orthogonalEdgeStyle;rounded=0;orthogonalLoop=1;jettySize=auto;html=1;exitX=0;exitY=0;exitDx=140;exitDy=65;exitPerimeter=0;strokeWidth=2;" parent="1" source="3V3tb8CalUzVDeNO-80C-10" target="3V3tb8CalUzVDeNO-80C-12" edge="1">
          <mxGeometry relative="1" as="geometry" />
        </mxCell>
        <mxCell id="3V3tb8CalUzVDeNO-80C-10" value="Test script&lt;div&gt;(.test.elv)&lt;/div&gt;" style="shape=note;whiteSpace=wrap;html=1;backgroundOutline=1;darkOpacity=0.05;fontStyle=1;fontSize=16;fillColor=#FFF2CC;fontColor=#000000;strokeColor=#000000;" parent="1" vertex="1">
          <mxGeometry x="250" y="195" width="140" height="100" as="geometry" />
        </mxCell>
        <mxCell id="3V3tb8CalUzVDeNO-80C-11" style="edgeStyle=orthogonalEdgeStyle;rounded=0;orthogonalLoop=1;jettySize=auto;html=1;exitX=1;exitY=0.5;exitDx=0;exitDy=0;entryX=0;entryY=0.5;entryDx=0;entryDy=0;strokeWidth=2;" parent="1" source="3V3tb8CalUzVDeNO-80C-12" target="3V3tb8CalUzVDeNO-80C-13" edge="1">
          <mxGeometry relative="1" as="geometry" />
        </mxCell>
        <mxCell id="3V3tb8CalUzVDeNO-80C-12" value="&lt;font style=&quot;font-size: 15px;&quot;&gt;Tests run sequentially&lt;/font&gt;&lt;div&gt;&lt;font style=&quot;font-size: 15px;&quot;&gt;in a dedicated&lt;/font&gt;&lt;/div&gt;&lt;div&gt;&lt;font style=&quot;font-size: 15px;&quot;&gt;Elvish shell&lt;/font&gt;&lt;/div&gt;" style="rounded=0;whiteSpace=wrap;html=1;fontStyle=1;fillColor=#CCFFCC;fontColor=#000000;strokeColor=#000000;" parent="1" vertex="1">
          <mxGeometry x="451" y="210" width="190" height="100" as="geometry" />
        </mxCell>
        <mxCell id="3V3tb8CalUzVDeNO-80C-13" value="Tree of test results&lt;div&gt;for the script&lt;/div&gt;" style="shape=document;whiteSpace=wrap;html=1;boundedLbl=1;fontStyle=1;fontSize=16;strokeColor=#000000;fillColor=#FFEFFC;fontColor=#000000;" parent="1" vertex="1">
          <mxGeometry x="700" y="210" width="160" height="100" as="geometry" />
        </mxCell>
        <mxCell id="3V3tb8CalUzVDeNO-80C-14" style="edgeStyle=orthogonalEdgeStyle;rounded=0;orthogonalLoop=1;jettySize=auto;html=1;exitX=0;exitY=0;exitDx=140;exitDy=65;exitPerimeter=0;strokeWidth=2;" parent="1" source="3V3tb8CalUzVDeNO-80C-15" target="3V3tb8CalUzVDeNO-80C-17" edge="1">
          <mxGeometry relative="1" as="geometry" />
        </mxCell>
        <mxCell id="3V3tb8CalUzVDeNO-80C-15" value="Test script&lt;div&gt;(.test.elv)&lt;/div&gt;" style="shape=note;whiteSpace=wrap;html=1;backgroundOutline=1;darkOpacity=0.05;fontStyle=1;fontSize=16;fillColor=#FFF2CC;fontColor=#000000;strokeColor=#000000;" parent="1" vertex="1">
          <mxGeometry x="250" y="399" width="140" height="100" as="geometry" />
        </mxCell>
        <mxCell id="3V3tb8CalUzVDeNO-80C-16" style="edgeStyle=orthogonalEdgeStyle;rounded=0;orthogonalLoop=1;jettySize=auto;html=1;exitX=1;exitY=0.5;exitDx=0;exitDy=0;entryX=0;entryY=0.5;entryDx=0;entryDy=0;strokeWidth=2;" parent="1" source="3V3tb8CalUzVDeNO-80C-17" target="3V3tb8CalUzVDeNO-80C-18" edge="1">
          <mxGeometry relative="1" as="geometry" />
        </mxCell>
        <mxCell id="3V3tb8CalUzVDeNO-80C-17" value="&lt;font style=&quot;font-size: 15px;&quot;&gt;Tests run sequentially&lt;/font&gt;&lt;div&gt;&lt;font style=&quot;font-size: 15px;&quot;&gt;in a dedicated&lt;/font&gt;&lt;/div&gt;&lt;div&gt;&lt;font style=&quot;font-size: 15px;&quot;&gt;Elvish shell&lt;/font&gt;&lt;/div&gt;" style="rounded=0;whiteSpace=wrap;html=1;fontStyle=1;fillColor=#CCFFCC;fontColor=#000000;strokeColor=#000000;" parent="1" vertex="1">
          <mxGeometry x="451" y="414" width="190" height="100" as="geometry" />
        </mxCell>
        <mxCell id="3V3tb8CalUzVDeNO-80C-18" value="Tree of test results&lt;div&gt;for the script&lt;/div&gt;" style="shape=document;whiteSpace=wrap;html=1;boundedLbl=1;fontStyle=1;fontSize=16;strokeColor=#000000;fillColor=#FFEFFC;fontColor=#000000;" parent="1" vertex="1">
          <mxGeometry x="700" y="414" width="160" height="100" as="geometry" />
        </mxCell>
        <mxCell id="3V3tb8CalUzVDeNO-80C-20" value="" style="shape=curlyBracket;whiteSpace=wrap;html=1;rounded=1;labelPosition=left;verticalLabelPosition=middle;align=right;verticalAlign=middle;strokeWidth=3;fillColor=#000000;strokeColor=#6600CC;" parent="1" vertex="1">
          <mxGeometry x="180" y="35" width="50" height="475" as="geometry" />
        </mxCell>
        <mxCell id="3V3tb8CalUzVDeNO-80C-30" style="edgeStyle=orthogonalEdgeStyle;rounded=0;orthogonalLoop=1;jettySize=auto;html=1;exitX=0.1;exitY=0.5;exitDx=0;exitDy=0;exitPerimeter=0;strokeWidth=3;strokeColor=#6600CC;" parent="1" source="3V3tb8CalUzVDeNO-80C-21" target="3V3tb8CalUzVDeNO-80C-23" edge="1">
          <mxGeometry relative="1" as="geometry" />
        </mxCell>
        <mxCell id="3V3tb8CalUzVDeNO-80C-21" value="" style="shape=curlyBracket;whiteSpace=wrap;html=1;rounded=1;labelPosition=left;verticalLabelPosition=middle;align=right;verticalAlign=middle;strokeWidth=3;fillColor=#000000;strokeColor=#6600CC;flipH=1;" parent="1" vertex="1">
          <mxGeometry x="880" y="40" width="50" height="470" as="geometry" />
        </mxCell>
        <mxCell id="3V3tb8CalUzVDeNO-80C-36" style="edgeStyle=orthogonalEdgeStyle;rounded=0;orthogonalLoop=1;jettySize=auto;html=1;exitX=1;exitY=0.5;exitDx=0;exitDy=0;exitPerimeter=0;entryX=0;entryY=0.5;entryDx=0;entryDy=0;strokeWidth=3;strokeColor=#007FFF;" parent="1" source="3V3tb8CalUzVDeNO-80C-23" target="3V3tb8CalUzVDeNO-80C-27" edge="1">
          <mxGeometry relative="1" as="geometry" />
        </mxCell>
        <mxCell id="3V3tb8CalUzVDeNO-80C-37" style="edgeStyle=orthogonalEdgeStyle;rounded=0;orthogonalLoop=1;jettySize=auto;html=1;exitX=1;exitY=0.5;exitDx=0;exitDy=0;exitPerimeter=0;entryX=0;entryY=0.5;entryDx=0;entryDy=0;strokeWidth=3;strokeColor=#007FFF;" parent="1" source="3V3tb8CalUzVDeNO-80C-23" target="3V3tb8CalUzVDeNO-80C-33" edge="1">
          <mxGeometry relative="1" as="geometry" />
        </mxCell>
        <mxCell id="3V3tb8CalUzVDeNO-80C-38" style="edgeStyle=orthogonalEdgeStyle;rounded=0;orthogonalLoop=1;jettySize=auto;html=1;exitX=1;exitY=0.5;exitDx=0;exitDy=0;exitPerimeter=0;entryX=0;entryY=0.5;entryDx=0;entryDy=0;strokeWidth=3;strokeColor=#007FFF;" parent="1" source="3V3tb8CalUzVDeNO-80C-23" target="3V3tb8CalUzVDeNO-80C-35" edge="1">
          <mxGeometry relative="1" as="geometry" />
        </mxCell>
        <mxCell id="3V3tb8CalUzVDeNO-80C-23" value="&lt;div style=&quot;line-height: 150%;&quot;&gt;&lt;div&gt;&lt;b&gt;&lt;font&gt;SUMMARY&lt;/font&gt;&lt;/b&gt;&lt;/div&gt;&lt;/div&gt;" style="shape=cylinder3;whiteSpace=wrap;html=1;boundedLbl=1;backgroundOutline=1;size=15;fillColor=#6600CC;strokeColor=#000000;fontSize=28;fontColor=#FFFFFF;" parent="1" vertex="1">
          <mxGeometry x="990" y="204.5" width="170" height="140" as="geometry" />
        </mxCell>
        <mxCell id="3V3tb8CalUzVDeNO-80C-24" value="" style="shape=curlyBracket;whiteSpace=wrap;html=1;rounded=1;flipH=1;labelPosition=right;verticalLabelPosition=middle;align=left;verticalAlign=middle;direction=south;flipV=1;size=0.5;strokeWidth=2;strokeColor=#004C99;fontColor=#004C99;" parent="1" vertex="1">
          <mxGeometry x="250" y="522" width="610" height="40" as="geometry" />
        </mxCell>
        <mxCell id="3V3tb8CalUzVDeNO-80C-25" value="&lt;font style=&quot;font-size: 17px;&quot;&gt;&lt;b style=&quot;&quot;&gt;PARALLEL EXECUTION&lt;/b&gt;&lt;/font&gt;" style="text;html=1;align=center;verticalAlign=middle;whiteSpace=wrap;rounded=0;fontColor=#004C99;" parent="1" vertex="1">
          <mxGeometry x="447.75" y="564" width="214.5" height="30" as="geometry" />
        </mxCell>
        <mxCell id="3V3tb8CalUzVDeNO-80C-26" value="&lt;font style=&quot;font-size: 81px;&quot;&gt;...&lt;/font&gt;" style="text;html=1;align=center;verticalAlign=middle;whiteSpace=wrap;rounded=0;fontStyle=1;fontSize=59;fontColor=#004C99;" parent="1" vertex="1">
          <mxGeometry x="504" y="304" width="84" height="70" as="geometry" />
        </mxCell>
        <mxCell id="3V3tb8CalUzVDeNO-80C-27" value="REPORTER" style="shape=process;whiteSpace=wrap;html=1;backgroundOutline=1;fillColor=#000099;fontStyle=1;fontSize=18;fontColor=#FFFFFF;strokeColor=#FFFFFF;" parent="1" vertex="1">
          <mxGeometry x="1295" y="110" width="180" height="60" as="geometry" />
        </mxCell>
        <mxCell id="3V3tb8CalUzVDeNO-80C-33" value="REPORTER" style="shape=process;whiteSpace=wrap;html=1;backgroundOutline=1;fillColor=#000099;fontStyle=1;fontSize=18;fontColor=#FFFFFF;strokeColor=#FFFFFF;" parent="1" vertex="1">
          <mxGeometry x="1295" y="244" width="180" height="60" as="geometry" />
        </mxCell>
        <mxCell id="3V3tb8CalUzVDeNO-80C-34" value="..." style="text;html=1;align=center;verticalAlign=middle;whiteSpace=wrap;rounded=0;fontStyle=1;fontSize=53;fontColor=#000099;" parent="1" vertex="1">
          <mxGeometry x="1320" y="297" width="130" height="49" as="geometry" />
        </mxCell>
        <mxCell id="3V3tb8CalUzVDeNO-80C-35" value="REPORTER" style="shape=process;whiteSpace=wrap;html=1;backgroundOutline=1;fillColor=#000099;fontStyle=1;fontSize=18;fontColor=#FFFFFF;strokeColor=#FFFFFF;" parent="1" vertex="1">
          <mxGeometry x="1295" y="374" width="180" height="60" as="geometry" />
        </mxCell>
      </root>
    </mxGraphModel>
  </diagram>
</mxfile>
